<mxfile host="app.diagrams.net" agent="Mozilla/5.0 (Windows NT 10.0; Win64; x64) AppleWebKit/537.36 (KHTML, like Gecko) Chrome/135.0.0.0 Safari/537.36" version="26.2.6">
  <diagram name="Página-1" id="gZ7x9nybS8uVqQl1UhLV">
    <mxGraphModel dx="994" dy="502" grid="1" gridSize="10" guides="1" tooltips="1" connect="1" arrows="1" fold="1" page="1" pageScale="1" pageWidth="827" pageHeight="1169" math="0" shadow="0">
      <root>
        <mxCell id="0" />
        <mxCell id="1" parent="0" />
        <mxCell id="aTW673T8hF_LHLhTMq_z-1" value="Administrador" style="shape=umlActor;verticalLabelPosition=bottom;verticalAlign=top;html=1;outlineConnect=0;" vertex="1" parent="1">
          <mxGeometry x="60" y="470" width="30" height="60" as="geometry" />
        </mxCell>
        <mxCell id="aTW673T8hF_LHLhTMq_z-2" value="Usuario" style="shape=umlActor;verticalLabelPosition=bottom;verticalAlign=top;html=1;outlineConnect=0;" vertex="1" parent="1">
          <mxGeometry x="60" y="230" width="30" height="60" as="geometry" />
        </mxCell>
        <mxCell id="aTW673T8hF_LHLhTMq_z-3" value="Tienda de Señales de Tráfico" style="swimlane;whiteSpace=wrap;html=1;" vertex="1" parent="1">
          <mxGeometry x="340" y="30" width="420" height="1100" as="geometry" />
        </mxCell>
        <mxCell id="aTW673T8hF_LHLhTMq_z-4" value="Registrarse" style="ellipse;whiteSpace=wrap;html=1;" vertex="1" parent="aTW673T8hF_LHLhTMq_z-3">
          <mxGeometry x="20" y="40" width="90" height="40" as="geometry" />
        </mxCell>
        <mxCell id="aTW673T8hF_LHLhTMq_z-5" value="Iniciar sesión" style="ellipse;whiteSpace=wrap;html=1;" vertex="1" parent="aTW673T8hF_LHLhTMq_z-3">
          <mxGeometry x="20" y="90" width="90" height="40" as="geometry" />
        </mxCell>
        <mxCell id="aTW673T8hF_LHLhTMq_z-6" value="Ver producto" style="ellipse;whiteSpace=wrap;html=1;" vertex="1" parent="aTW673T8hF_LHLhTMq_z-3">
          <mxGeometry x="20" y="250" width="90" height="40" as="geometry" />
        </mxCell>
        <mxCell id="aTW673T8hF_LHLhTMq_z-7" value="Ver productos&lt;div&gt;recomendados&lt;/div&gt;" style="ellipse;whiteSpace=wrap;html=1;" vertex="1" parent="aTW673T8hF_LHLhTMq_z-3">
          <mxGeometry x="20" y="140" width="116" height="50" as="geometry" />
        </mxCell>
        <mxCell id="aTW673T8hF_LHLhTMq_z-8" value="Buscar producto" style="ellipse;whiteSpace=wrap;html=1;" vertex="1" parent="aTW673T8hF_LHLhTMq_z-3">
          <mxGeometry x="20" y="200" width="110" height="40" as="geometry" />
        </mxCell>
        <mxCell id="aTW673T8hF_LHLhTMq_z-9" value="Añadir al&lt;div&gt;carrito&lt;/div&gt;" style="ellipse;whiteSpace=wrap;html=1;" vertex="1" parent="aTW673T8hF_LHLhTMq_z-3">
          <mxGeometry x="20" y="300" width="90" height="40" as="geometry" />
        </mxCell>
        <mxCell id="aTW673T8hF_LHLhTMq_z-24" value="&amp;lt;&amp;lt;include&amp;gt;&amp;gt;" style="html=1;verticalAlign=bottom;endArrow=open;dashed=1;endSize=8;rounded=0;exitX=1;exitY=0.5;exitDx=0;exitDy=0;edgeStyle=orthogonalEdgeStyle;curved=1;entryX=1;entryY=0.5;entryDx=0;entryDy=0;" edge="1" parent="aTW673T8hF_LHLhTMq_z-3" source="aTW673T8hF_LHLhTMq_z-4" target="aTW673T8hF_LHLhTMq_z-7">
          <mxGeometry relative="1" as="geometry">
            <mxPoint x="260" y="249.97000000000003" as="sourcePoint" />
            <mxPoint x="260" y="39.97" as="targetPoint" />
            <Array as="points">
              <mxPoint x="180" y="60" />
              <mxPoint x="180" y="165" />
            </Array>
          </mxGeometry>
        </mxCell>
        <mxCell id="aTW673T8hF_LHLhTMq_z-27" value="&amp;lt;&amp;lt;extends&amp;gt;&amp;gt;" style="html=1;verticalAlign=bottom;endArrow=open;dashed=1;endSize=8;rounded=0;edgeStyle=orthogonalEdgeStyle;curved=1;exitX=1;exitY=0.5;exitDx=0;exitDy=0;entryX=1;entryY=0.5;entryDx=0;entryDy=0;" edge="1" parent="aTW673T8hF_LHLhTMq_z-3" source="aTW673T8hF_LHLhTMq_z-9" target="aTW673T8hF_LHLhTMq_z-5">
          <mxGeometry relative="1" as="geometry">
            <mxPoint x="240" y="120" as="sourcePoint" />
            <mxPoint x="260" y="170" as="targetPoint" />
            <Array as="points">
              <mxPoint x="270" y="320" />
              <mxPoint x="270" y="110" />
            </Array>
          </mxGeometry>
        </mxCell>
        <mxCell id="aTW673T8hF_LHLhTMq_z-28" value="&amp;lt;&amp;lt;extends&amp;gt;&amp;gt;" style="html=1;verticalAlign=bottom;endArrow=open;dashed=1;endSize=8;rounded=0;edgeStyle=orthogonalEdgeStyle;curved=1;exitX=1;exitY=0.5;exitDx=0;exitDy=0;" edge="1" parent="aTW673T8hF_LHLhTMq_z-3" source="aTW673T8hF_LHLhTMq_z-6">
          <mxGeometry relative="1" as="geometry">
            <mxPoint x="260" y="350" as="sourcePoint" />
            <mxPoint x="110" y="110" as="targetPoint" />
            <Array as="points">
              <mxPoint x="210" y="270" />
              <mxPoint x="210" y="110" />
            </Array>
            <mxPoint as="offset" />
          </mxGeometry>
        </mxCell>
        <mxCell id="aTW673T8hF_LHLhTMq_z-29" value="&amp;lt;&amp;lt;extends&amp;gt;&amp;gt;" style="html=1;verticalAlign=bottom;endArrow=open;dashed=1;endSize=8;rounded=0;edgeStyle=orthogonalEdgeStyle;curved=1;entryX=1;entryY=0.5;entryDx=0;entryDy=0;exitX=1;exitY=0.5;exitDx=0;exitDy=0;" edge="1" parent="aTW673T8hF_LHLhTMq_z-3" source="aTW673T8hF_LHLhTMq_z-7" target="aTW673T8hF_LHLhTMq_z-5">
          <mxGeometry x="-0.1311" relative="1" as="geometry">
            <mxPoint x="140" y="180" as="sourcePoint" />
            <mxPoint x="120" y="120" as="targetPoint" />
            <Array as="points">
              <mxPoint x="290" y="165" />
              <mxPoint x="290" y="110" />
            </Array>
            <mxPoint as="offset" />
          </mxGeometry>
        </mxCell>
        <mxCell id="aTW673T8hF_LHLhTMq_z-30" value="Enviar correo&lt;div&gt;de registro&lt;/div&gt;" style="ellipse;whiteSpace=wrap;html=1;" vertex="1" parent="aTW673T8hF_LHLhTMq_z-3">
          <mxGeometry x="260" y="40" width="106" height="40" as="geometry" />
        </mxCell>
        <mxCell id="aTW673T8hF_LHLhTMq_z-31" value="Enviar correo&lt;div&gt;de eliminación&lt;/div&gt;" style="ellipse;whiteSpace=wrap;html=1;" vertex="1" parent="aTW673T8hF_LHLhTMq_z-3">
          <mxGeometry x="170" y="420" width="116" height="40" as="geometry" />
        </mxCell>
        <mxCell id="aTW673T8hF_LHLhTMq_z-32" value="Ver carrito" style="ellipse;whiteSpace=wrap;html=1;" vertex="1" parent="aTW673T8hF_LHLhTMq_z-3">
          <mxGeometry x="20" y="350" width="90" height="40" as="geometry" />
        </mxCell>
        <mxCell id="aTW673T8hF_LHLhTMq_z-33" value="Hacer pedido" style="ellipse;whiteSpace=wrap;html=1;" vertex="1" parent="aTW673T8hF_LHLhTMq_z-3">
          <mxGeometry x="263" y="350" width="90" height="40" as="geometry" />
        </mxCell>
        <mxCell id="aTW673T8hF_LHLhTMq_z-34" value="&amp;lt;&amp;lt;extends&amp;gt;&amp;gt;" style="html=1;verticalAlign=bottom;endArrow=open;dashed=1;endSize=8;rounded=0;exitX=0;exitY=0.5;exitDx=0;exitDy=0;edgeStyle=orthogonalEdgeStyle;curved=1;entryX=1;entryY=0.5;entryDx=0;entryDy=0;" edge="1" parent="aTW673T8hF_LHLhTMq_z-3" source="aTW673T8hF_LHLhTMq_z-33" target="aTW673T8hF_LHLhTMq_z-32">
          <mxGeometry x="-0.1111" y="10" relative="1" as="geometry">
            <mxPoint x="230" y="410" as="sourcePoint" />
            <mxPoint x="246" y="460" as="targetPoint" />
            <Array as="points">
              <mxPoint x="190" y="370" />
              <mxPoint x="190" y="370" />
            </Array>
            <mxPoint as="offset" />
          </mxGeometry>
        </mxCell>
        <mxCell id="aTW673T8hF_LHLhTMq_z-35" value="&amp;lt;&amp;lt;include&amp;gt;&amp;gt;" style="html=1;verticalAlign=bottom;endArrow=open;dashed=1;endSize=8;rounded=0;exitX=1;exitY=0.5;exitDx=0;exitDy=0;edgeStyle=orthogonalEdgeStyle;curved=1;entryX=0;entryY=0.5;entryDx=0;entryDy=0;" edge="1" parent="aTW673T8hF_LHLhTMq_z-3" source="aTW673T8hF_LHLhTMq_z-4" target="aTW673T8hF_LHLhTMq_z-30">
          <mxGeometry relative="1" as="geometry">
            <mxPoint x="420" y="70" as="sourcePoint" />
            <mxPoint x="446" y="175" as="targetPoint" />
            <Array as="points">
              <mxPoint x="190" y="60" />
              <mxPoint x="190" y="60" />
            </Array>
          </mxGeometry>
        </mxCell>
        <mxCell id="aTW673T8hF_LHLhTMq_z-36" value="&amp;lt;&amp;lt;include&amp;gt;&amp;gt;" style="html=1;verticalAlign=bottom;endArrow=open;dashed=1;endSize=8;rounded=0;edgeStyle=orthogonalEdgeStyle;curved=1;exitX=1;exitY=0;exitDx=0;exitDy=0;" edge="1" parent="aTW673T8hF_LHLhTMq_z-3" source="aTW673T8hF_LHLhTMq_z-76" target="aTW673T8hF_LHLhTMq_z-31">
          <mxGeometry x="0.1022" y="-10" relative="1" as="geometry">
            <mxPoint x="240" y="410" as="sourcePoint" />
            <mxPoint x="390" y="410" as="targetPoint" />
            <Array as="points">
              <mxPoint x="97" y="440" />
            </Array>
            <mxPoint as="offset" />
          </mxGeometry>
        </mxCell>
        <mxCell id="aTW673T8hF_LHLhTMq_z-75" value="Crear Valoración" style="ellipse;whiteSpace=wrap;html=1;" vertex="1" parent="aTW673T8hF_LHLhTMq_z-3">
          <mxGeometry x="20" y="400" width="90" height="40" as="geometry" />
        </mxCell>
        <mxCell id="aTW673T8hF_LHLhTMq_z-76" value="Eliminar Valoración" style="ellipse;whiteSpace=wrap;html=1;" vertex="1" parent="aTW673T8hF_LHLhTMq_z-3">
          <mxGeometry x="20" y="450" width="90" height="40" as="geometry" />
        </mxCell>
        <mxCell id="aTW673T8hF_LHLhTMq_z-22" value="Cerrar sesión" style="ellipse;whiteSpace=wrap;html=1;" vertex="1" parent="aTW673T8hF_LHLhTMq_z-3">
          <mxGeometry x="20" y="500" width="90" height="40" as="geometry" />
        </mxCell>
        <mxCell id="aTW673T8hF_LHLhTMq_z-18" value="Eliminar usuario" style="ellipse;whiteSpace=wrap;html=1;" vertex="1" parent="aTW673T8hF_LHLhTMq_z-3">
          <mxGeometry x="20" y="550" width="106" height="40" as="geometry" />
        </mxCell>
        <mxCell id="aTW673T8hF_LHLhTMq_z-17" value="Editar usuario" style="ellipse;whiteSpace=wrap;html=1;" vertex="1" parent="aTW673T8hF_LHLhTMq_z-3">
          <mxGeometry x="20" y="600" width="106" height="40" as="geometry" />
        </mxCell>
        <mxCell id="aTW673T8hF_LHLhTMq_z-19" value="Establecer rol" style="ellipse;whiteSpace=wrap;html=1;" vertex="1" parent="aTW673T8hF_LHLhTMq_z-3">
          <mxGeometry x="252" y="710" width="106" height="40" as="geometry" />
        </mxCell>
        <mxCell id="aTW673T8hF_LHLhTMq_z-16" value="Crear usuario" style="ellipse;whiteSpace=wrap;html=1;" vertex="1" parent="aTW673T8hF_LHLhTMq_z-3">
          <mxGeometry x="20" y="650" width="106" height="40" as="geometry" />
        </mxCell>
        <mxCell id="aTW673T8hF_LHLhTMq_z-11" value="Crear producto" style="ellipse;whiteSpace=wrap;html=1;" vertex="1" parent="aTW673T8hF_LHLhTMq_z-3">
          <mxGeometry x="20" y="700" width="106" height="40" as="geometry" />
        </mxCell>
        <mxCell id="aTW673T8hF_LHLhTMq_z-10" value="Crear categoría" style="ellipse;whiteSpace=wrap;html=1;" vertex="1" parent="aTW673T8hF_LHLhTMq_z-3">
          <mxGeometry x="20" y="750" width="106" height="40" as="geometry" />
        </mxCell>
        <mxCell id="aTW673T8hF_LHLhTMq_z-12" value="Editar categoría" style="ellipse;whiteSpace=wrap;html=1;" vertex="1" parent="aTW673T8hF_LHLhTMq_z-3">
          <mxGeometry x="20" y="800" width="106" height="40" as="geometry" />
        </mxCell>
        <mxCell id="aTW673T8hF_LHLhTMq_z-15" value="Editar producto" style="ellipse;whiteSpace=wrap;html=1;" vertex="1" parent="aTW673T8hF_LHLhTMq_z-3">
          <mxGeometry x="20" y="850" width="106" height="40" as="geometry" />
        </mxCell>
        <mxCell id="aTW673T8hF_LHLhTMq_z-14" value="Eliminar categoría" style="ellipse;whiteSpace=wrap;html=1;" vertex="1" parent="aTW673T8hF_LHLhTMq_z-3">
          <mxGeometry x="20" y="900" width="106" height="40" as="geometry" />
        </mxCell>
        <mxCell id="aTW673T8hF_LHLhTMq_z-13" value="Eliminar producto" style="ellipse;whiteSpace=wrap;html=1;" vertex="1" parent="aTW673T8hF_LHLhTMq_z-3">
          <mxGeometry x="20" y="950" width="106" height="40" as="geometry" />
        </mxCell>
        <mxCell id="aTW673T8hF_LHLhTMq_z-25" value="Eliminar pedido" style="ellipse;whiteSpace=wrap;html=1;" vertex="1" parent="aTW673T8hF_LHLhTMq_z-3">
          <mxGeometry x="20" y="1000" width="106" height="40" as="geometry" />
        </mxCell>
        <mxCell id="aTW673T8hF_LHLhTMq_z-26" value="Cambiar estado&lt;div&gt;de pedido&lt;/div&gt;" style="ellipse;whiteSpace=wrap;html=1;" vertex="1" parent="aTW673T8hF_LHLhTMq_z-3">
          <mxGeometry x="20" y="1050" width="130" height="40" as="geometry" />
        </mxCell>
        <mxCell id="aTW673T8hF_LHLhTMq_z-37" value="Enviar correo&lt;div&gt;de confirmación&lt;/div&gt;" style="ellipse;whiteSpace=wrap;html=1;" vertex="1" parent="aTW673T8hF_LHLhTMq_z-3">
          <mxGeometry x="250" y="1050" width="130" height="40" as="geometry" />
        </mxCell>
        <mxCell id="aTW673T8hF_LHLhTMq_z-70" value="Enviar correo&lt;div&gt;de eliminación&lt;/div&gt;" style="ellipse;whiteSpace=wrap;html=1;" vertex="1" parent="aTW673T8hF_LHLhTMq_z-3">
          <mxGeometry x="240" y="1000" width="130" height="40" as="geometry" />
        </mxCell>
        <mxCell id="aTW673T8hF_LHLhTMq_z-23" value="&amp;lt;&amp;lt;extends&amp;gt;&amp;gt;" style="html=1;verticalAlign=bottom;endArrow=open;dashed=1;endSize=8;rounded=0;edgeStyle=orthogonalEdgeStyle;curved=1;entryX=1;entryY=0.5;entryDx=0;entryDy=0;" edge="1" parent="aTW673T8hF_LHLhTMq_z-3" source="aTW673T8hF_LHLhTMq_z-22" target="aTW673T8hF_LHLhTMq_z-18">
          <mxGeometry x="0.1935" relative="1" as="geometry">
            <mxPoint x="110" y="520" as="sourcePoint" />
            <mxPoint x="280" y="460" as="targetPoint" />
            <Array as="points">
              <mxPoint x="160" y="520" />
              <mxPoint x="160" y="570" />
            </Array>
            <mxPoint as="offset" />
          </mxGeometry>
        </mxCell>
        <mxCell id="aTW673T8hF_LHLhTMq_z-20" value="&amp;lt;&amp;lt;extends&amp;gt;&amp;gt;" style="html=1;verticalAlign=bottom;endArrow=open;dashed=1;endSize=8;curved=0;rounded=0;entryX=1;entryY=0.5;entryDx=0;entryDy=0;exitX=0;exitY=0.5;exitDx=0;exitDy=0;" edge="1" parent="aTW673T8hF_LHLhTMq_z-3" source="aTW673T8hF_LHLhTMq_z-19" target="aTW673T8hF_LHLhTMq_z-17">
          <mxGeometry x="0.1204" y="2" relative="1" as="geometry">
            <mxPoint x="169.99778943976526" y="524.2903331496714" as="sourcePoint" />
            <mxPoint x="306.4669096551272" y="535.7072424712604" as="targetPoint" />
            <mxPoint as="offset" />
          </mxGeometry>
        </mxCell>
        <mxCell id="aTW673T8hF_LHLhTMq_z-21" value="&amp;lt;&amp;lt;extends&amp;gt;&amp;gt;" style="html=1;verticalAlign=bottom;endArrow=open;dashed=1;endSize=8;curved=0;rounded=0;entryX=1;entryY=0.5;entryDx=0;entryDy=0;exitX=0;exitY=0.5;exitDx=0;exitDy=0;" edge="1" parent="aTW673T8hF_LHLhTMq_z-3" source="aTW673T8hF_LHLhTMq_z-19" target="aTW673T8hF_LHLhTMq_z-16">
          <mxGeometry x="0.0548" y="13" relative="1" as="geometry">
            <mxPoint x="140.37595036261587" y="649.9980060987912" as="sourcePoint" />
            <mxPoint x="279.61514100905265" y="632.4179126709237" as="targetPoint" />
            <mxPoint as="offset" />
          </mxGeometry>
        </mxCell>
        <mxCell id="aTW673T8hF_LHLhTMq_z-73" value="&amp;lt;&amp;lt;extends&amp;gt;&amp;gt;" style="html=1;verticalAlign=bottom;endArrow=open;dashed=1;endSize=8;curved=0;rounded=0;" edge="1" parent="aTW673T8hF_LHLhTMq_z-3" source="aTW673T8hF_LHLhTMq_z-13" target="aTW673T8hF_LHLhTMq_z-14">
          <mxGeometry x="-0.0239" relative="1" as="geometry">
            <mxPoint x="293" y="919" as="sourcePoint" />
            <mxPoint x="160" y="890" as="targetPoint" />
            <mxPoint as="offset" />
            <Array as="points">
              <mxPoint x="180" y="950" />
              <mxPoint x="180" y="920" />
              <mxPoint x="150" y="920" />
            </Array>
          </mxGeometry>
        </mxCell>
        <mxCell id="aTW673T8hF_LHLhTMq_z-74" value="&amp;lt;&amp;lt;extends&amp;gt;&amp;gt;" style="html=1;verticalAlign=bottom;endArrow=open;dashed=1;endSize=8;curved=0;rounded=0;" edge="1" parent="aTW673T8hF_LHLhTMq_z-3" source="aTW673T8hF_LHLhTMq_z-25" target="aTW673T8hF_LHLhTMq_z-18">
          <mxGeometry x="-0.0005" relative="1" as="geometry">
            <mxPoint x="220" y="820" as="sourcePoint" />
            <mxPoint x="270" y="890" as="targetPoint" />
            <mxPoint as="offset" />
            <Array as="points">
              <mxPoint x="230" y="1050" />
              <mxPoint x="380" y="1040" />
              <mxPoint x="380" y="650" />
            </Array>
          </mxGeometry>
        </mxCell>
        <mxCell id="aTW673T8hF_LHLhTMq_z-69" value="&amp;lt;&amp;lt;include&amp;gt;&amp;gt;" style="html=1;verticalAlign=bottom;endArrow=open;dashed=1;endSize=8;rounded=0;edgeStyle=orthogonalEdgeStyle;curved=1;" edge="1" parent="aTW673T8hF_LHLhTMq_z-3" source="aTW673T8hF_LHLhTMq_z-26" target="aTW673T8hF_LHLhTMq_z-37">
          <mxGeometry y="-10" relative="1" as="geometry">
            <mxPoint x="290" y="990" as="sourcePoint" />
            <mxPoint x="290" y="930" as="targetPoint" />
            <mxPoint as="offset" />
          </mxGeometry>
        </mxCell>
        <mxCell id="aTW673T8hF_LHLhTMq_z-72" value="&amp;lt;&amp;lt;extends&amp;gt;&amp;gt;" style="html=1;verticalAlign=bottom;endArrow=open;dashed=1;endSize=8;curved=0;rounded=0;" edge="1" parent="aTW673T8hF_LHLhTMq_z-3" source="aTW673T8hF_LHLhTMq_z-70" target="aTW673T8hF_LHLhTMq_z-13">
          <mxGeometry x="-0.124" y="9" relative="1" as="geometry">
            <mxPoint x="270" y="970" as="sourcePoint" />
            <mxPoint x="136" y="910" as="targetPoint" />
            <mxPoint as="offset" />
            <Array as="points">
              <mxPoint x="300" y="970" />
            </Array>
          </mxGeometry>
        </mxCell>
        <mxCell id="aTW673T8hF_LHLhTMq_z-71" value="&amp;lt;&amp;lt;include&amp;gt;&amp;gt;" style="html=1;verticalAlign=bottom;endArrow=open;dashed=1;endSize=8;rounded=0;edgeStyle=orthogonalEdgeStyle;curved=1;" edge="1" parent="aTW673T8hF_LHLhTMq_z-3" target="aTW673T8hF_LHLhTMq_z-70" source="aTW673T8hF_LHLhTMq_z-25">
          <mxGeometry y="-10" relative="1" as="geometry">
            <mxPoint x="140" y="1020" as="sourcePoint" />
            <mxPoint x="280" y="880" as="targetPoint" />
            <mxPoint as="offset" />
          </mxGeometry>
        </mxCell>
        <mxCell id="aTW673T8hF_LHLhTMq_z-81" value="&amp;lt;&amp;lt;extends&amp;gt;&amp;gt;" style="html=1;verticalAlign=bottom;endArrow=open;dashed=1;endSize=8;rounded=0;edgeStyle=orthogonalEdgeStyle;curved=1;exitX=1;exitY=0.5;exitDx=0;exitDy=0;" edge="1" parent="aTW673T8hF_LHLhTMq_z-3" source="aTW673T8hF_LHLhTMq_z-76" target="aTW673T8hF_LHLhTMq_z-18">
          <mxGeometry x="0.0526" y="-10" relative="1" as="geometry">
            <mxPoint x="150" y="490" as="sourcePoint" />
            <mxPoint x="130" y="570" as="targetPoint" />
            <Array as="points">
              <mxPoint x="220" y="470" />
              <mxPoint x="220" y="570" />
            </Array>
            <mxPoint as="offset" />
          </mxGeometry>
        </mxCell>
        <mxCell id="aTW673T8hF_LHLhTMq_z-85" value="&amp;lt;&amp;lt;extends&amp;gt;&amp;gt;" style="html=1;verticalAlign=bottom;endArrow=open;dashed=1;endSize=8;curved=0;rounded=0;" edge="1" parent="aTW673T8hF_LHLhTMq_z-3" source="aTW673T8hF_LHLhTMq_z-25" target="aTW673T8hF_LHLhTMq_z-13">
          <mxGeometry x="-0.0706" relative="1" as="geometry">
            <mxPoint x="136" y="1015" as="sourcePoint" />
            <mxPoint x="154" y="980" as="targetPoint" />
            <mxPoint as="offset" />
            <Array as="points">
              <mxPoint x="180" y="1010" />
              <mxPoint x="180" y="980" />
            </Array>
          </mxGeometry>
        </mxCell>
        <mxCell id="aTW673T8hF_LHLhTMq_z-86" value="&amp;lt;&amp;lt;extends&amp;gt;&amp;gt;" style="html=1;verticalAlign=bottom;endArrow=open;dashed=1;endSize=8;curved=0;rounded=0;" edge="1" parent="aTW673T8hF_LHLhTMq_z-3" source="aTW673T8hF_LHLhTMq_z-25" target="aTW673T8hF_LHLhTMq_z-76">
          <mxGeometry x="-0.4489" relative="1" as="geometry">
            <mxPoint x="220" y="940" as="sourcePoint" />
            <mxPoint x="230" y="730" as="targetPoint" />
            <mxPoint as="offset" />
            <Array as="points">
              <mxPoint x="340" y="980" />
              <mxPoint x="340" y="770" />
              <mxPoint x="400" y="770" />
              <mxPoint x="400" y="560" />
              <mxPoint x="250" y="530" />
              <mxPoint x="250" y="470" />
            </Array>
          </mxGeometry>
        </mxCell>
        <mxCell id="aTW673T8hF_LHLhTMq_z-87" value="Enviar correo de&lt;div&gt;usuario&lt;/div&gt;" style="ellipse;whiteSpace=wrap;html=1;" vertex="1" parent="aTW673T8hF_LHLhTMq_z-3">
          <mxGeometry x="248.5" y="660" width="113" height="40" as="geometry" />
        </mxCell>
        <mxCell id="aTW673T8hF_LHLhTMq_z-88" value="&amp;lt;&amp;lt;extends&amp;gt;&amp;gt;" style="html=1;verticalAlign=bottom;endArrow=open;dashed=1;endSize=8;curved=0;rounded=0;entryX=1;entryY=0.5;entryDx=0;entryDy=0;" edge="1" parent="aTW673T8hF_LHLhTMq_z-3" source="aTW673T8hF_LHLhTMq_z-87" target="aTW673T8hF_LHLhTMq_z-17">
          <mxGeometry x="-0.124" y="9" relative="1" as="geometry">
            <mxPoint x="257" y="810" as="sourcePoint" />
            <mxPoint x="130" y="620" as="targetPoint" />
            <mxPoint as="offset" />
          </mxGeometry>
        </mxCell>
        <mxCell id="aTW673T8hF_LHLhTMq_z-89" value="&amp;lt;&amp;lt;extends&amp;gt;&amp;gt;" style="html=1;verticalAlign=bottom;endArrow=open;dashed=1;endSize=8;curved=0;rounded=0;entryX=1;entryY=0.5;entryDx=0;entryDy=0;" edge="1" parent="aTW673T8hF_LHLhTMq_z-3" source="aTW673T8hF_LHLhTMq_z-87" target="aTW673T8hF_LHLhTMq_z-16">
          <mxGeometry x="-0.2157" y="16" relative="1" as="geometry">
            <mxPoint x="257" y="810" as="sourcePoint" />
            <mxPoint x="136" y="750" as="targetPoint" />
            <mxPoint as="offset" />
          </mxGeometry>
        </mxCell>
        <mxCell id="aTW673T8hF_LHLhTMq_z-39" value="Visitante" style="shape=umlActor;verticalLabelPosition=bottom;verticalAlign=top;html=1;outlineConnect=0;" vertex="1" parent="1">
          <mxGeometry x="60" y="100" width="30" height="60" as="geometry" />
        </mxCell>
        <mxCell id="aTW673T8hF_LHLhTMq_z-40" value="" style="endArrow=none;html=1;rounded=0;entryX=0;entryY=0.5;entryDx=0;entryDy=0;" edge="1" parent="1" source="aTW673T8hF_LHLhTMq_z-39" target="aTW673T8hF_LHLhTMq_z-4">
          <mxGeometry width="50" height="50" relative="1" as="geometry">
            <mxPoint x="280" y="160" as="sourcePoint" />
            <mxPoint x="290" y="150" as="targetPoint" />
          </mxGeometry>
        </mxCell>
        <mxCell id="aTW673T8hF_LHLhTMq_z-41" value="" style="endArrow=none;html=1;rounded=0;entryX=0;entryY=0.5;entryDx=0;entryDy=0;" edge="1" parent="1" source="aTW673T8hF_LHLhTMq_z-39" target="aTW673T8hF_LHLhTMq_z-5">
          <mxGeometry width="50" height="50" relative="1" as="geometry">
            <mxPoint x="260" y="118" as="sourcePoint" />
            <mxPoint x="372" y="105" as="targetPoint" />
          </mxGeometry>
        </mxCell>
        <mxCell id="aTW673T8hF_LHLhTMq_z-42" value="" style="endArrow=none;html=1;rounded=0;entryX=0;entryY=0.5;entryDx=0;entryDy=0;" edge="1" parent="1" source="aTW673T8hF_LHLhTMq_z-1" target="aTW673T8hF_LHLhTMq_z-10">
          <mxGeometry width="50" height="50" relative="1" as="geometry">
            <mxPoint x="300" y="250" as="sourcePoint" />
            <mxPoint x="413" y="270" as="targetPoint" />
          </mxGeometry>
        </mxCell>
        <mxCell id="aTW673T8hF_LHLhTMq_z-43" value="" style="endArrow=none;html=1;rounded=0;entryX=0;entryY=0.5;entryDx=0;entryDy=0;" edge="1" parent="1" source="aTW673T8hF_LHLhTMq_z-1" target="aTW673T8hF_LHLhTMq_z-11">
          <mxGeometry width="50" height="50" relative="1" as="geometry">
            <mxPoint x="260" y="327" as="sourcePoint" />
            <mxPoint x="510" y="279" as="targetPoint" />
          </mxGeometry>
        </mxCell>
        <mxCell id="aTW673T8hF_LHLhTMq_z-44" value="" style="endArrow=none;html=1;rounded=0;entryX=0;entryY=0.5;entryDx=0;entryDy=0;" edge="1" parent="1" source="aTW673T8hF_LHLhTMq_z-1" target="aTW673T8hF_LHLhTMq_z-16">
          <mxGeometry width="50" height="50" relative="1" as="geometry">
            <mxPoint x="260" y="329" as="sourcePoint" />
            <mxPoint x="497" y="313" as="targetPoint" />
          </mxGeometry>
        </mxCell>
        <mxCell id="aTW673T8hF_LHLhTMq_z-45" value="" style="endArrow=none;html=1;rounded=0;entryX=0;entryY=0.5;entryDx=0;entryDy=0;" edge="1" parent="1" source="aTW673T8hF_LHLhTMq_z-1" target="aTW673T8hF_LHLhTMq_z-12">
          <mxGeometry width="50" height="50" relative="1" as="geometry">
            <mxPoint x="210" y="550" as="sourcePoint" />
            <mxPoint x="402" y="420" as="targetPoint" />
          </mxGeometry>
        </mxCell>
        <mxCell id="aTW673T8hF_LHLhTMq_z-46" value="" style="endArrow=none;html=1;rounded=0;entryX=0;entryY=0.5;entryDx=0;entryDy=0;" edge="1" parent="1" source="aTW673T8hF_LHLhTMq_z-1" target="aTW673T8hF_LHLhTMq_z-15">
          <mxGeometry width="50" height="50" relative="1" as="geometry">
            <mxPoint x="210" y="553" as="sourcePoint" />
            <mxPoint x="402" y="470" as="targetPoint" />
          </mxGeometry>
        </mxCell>
        <mxCell id="aTW673T8hF_LHLhTMq_z-47" value="" style="endArrow=none;html=1;rounded=0;entryX=0;entryY=0.5;entryDx=0;entryDy=0;" edge="1" parent="1" source="aTW673T8hF_LHLhTMq_z-1" target="aTW673T8hF_LHLhTMq_z-17">
          <mxGeometry width="50" height="50" relative="1" as="geometry">
            <mxPoint x="220" y="563" as="sourcePoint" />
            <mxPoint x="412" y="480" as="targetPoint" />
          </mxGeometry>
        </mxCell>
        <mxCell id="aTW673T8hF_LHLhTMq_z-48" value="" style="endArrow=none;html=1;rounded=0;entryX=0;entryY=0.5;entryDx=0;entryDy=0;" edge="1" parent="1" source="aTW673T8hF_LHLhTMq_z-1" target="aTW673T8hF_LHLhTMq_z-14">
          <mxGeometry width="50" height="50" relative="1" as="geometry">
            <mxPoint x="210" y="561" as="sourcePoint" />
            <mxPoint x="402" y="570" as="targetPoint" />
          </mxGeometry>
        </mxCell>
        <mxCell id="aTW673T8hF_LHLhTMq_z-49" value="" style="endArrow=none;html=1;rounded=0;entryX=0;entryY=0.5;entryDx=0;entryDy=0;" edge="1" parent="1" source="aTW673T8hF_LHLhTMq_z-1" target="aTW673T8hF_LHLhTMq_z-13">
          <mxGeometry width="50" height="50" relative="1" as="geometry">
            <mxPoint x="220" y="571" as="sourcePoint" />
            <mxPoint x="412" y="580" as="targetPoint" />
          </mxGeometry>
        </mxCell>
        <mxCell id="aTW673T8hF_LHLhTMq_z-50" value="" style="endArrow=none;html=1;rounded=0;entryX=0;entryY=0.5;entryDx=0;entryDy=0;" edge="1" parent="1" source="aTW673T8hF_LHLhTMq_z-1" target="aTW673T8hF_LHLhTMq_z-18">
          <mxGeometry width="50" height="50" relative="1" as="geometry">
            <mxPoint x="230" y="581" as="sourcePoint" />
            <mxPoint x="422" y="590" as="targetPoint" />
          </mxGeometry>
        </mxCell>
        <mxCell id="aTW673T8hF_LHLhTMq_z-51" value="" style="endArrow=none;html=1;rounded=0;entryX=0;entryY=0.5;entryDx=0;entryDy=0;" edge="1" parent="1" source="aTW673T8hF_LHLhTMq_z-39" target="aTW673T8hF_LHLhTMq_z-7">
          <mxGeometry width="50" height="50" relative="1" as="geometry">
            <mxPoint x="260" y="123" as="sourcePoint" />
            <mxPoint x="373" y="143" as="targetPoint" />
          </mxGeometry>
        </mxCell>
        <mxCell id="aTW673T8hF_LHLhTMq_z-52" value="" style="endArrow=none;html=1;rounded=0;entryX=0;entryY=0.5;entryDx=0;entryDy=0;" edge="1" parent="1" source="aTW673T8hF_LHLhTMq_z-39" target="aTW673T8hF_LHLhTMq_z-6">
          <mxGeometry width="50" height="50" relative="1" as="geometry">
            <mxPoint x="240" y="180" as="sourcePoint" />
            <mxPoint x="350" y="264" as="targetPoint" />
          </mxGeometry>
        </mxCell>
        <mxCell id="aTW673T8hF_LHLhTMq_z-53" value="" style="endArrow=none;html=1;rounded=0;entryX=0;entryY=0.5;entryDx=0;entryDy=0;" edge="1" parent="1" source="aTW673T8hF_LHLhTMq_z-2" target="aTW673T8hF_LHLhTMq_z-6">
          <mxGeometry width="50" height="50" relative="1" as="geometry">
            <mxPoint x="230" y="260" as="sourcePoint" />
            <mxPoint x="340" y="401" as="targetPoint" />
          </mxGeometry>
        </mxCell>
        <mxCell id="aTW673T8hF_LHLhTMq_z-54" value="" style="endArrow=none;html=1;rounded=0;entryX=0;entryY=0.5;entryDx=0;entryDy=0;" edge="1" parent="1" source="aTW673T8hF_LHLhTMq_z-2" target="aTW673T8hF_LHLhTMq_z-7">
          <mxGeometry width="50" height="50" relative="1" as="geometry">
            <mxPoint x="260" y="227" as="sourcePoint" />
            <mxPoint x="370" y="280" as="targetPoint" />
          </mxGeometry>
        </mxCell>
        <mxCell id="aTW673T8hF_LHLhTMq_z-55" value="" style="endArrow=none;html=1;rounded=0;entryX=0;entryY=0.5;entryDx=0;entryDy=0;" edge="1" parent="1" source="aTW673T8hF_LHLhTMq_z-1" target="aTW673T8hF_LHLhTMq_z-6">
          <mxGeometry width="50" height="50" relative="1" as="geometry">
            <mxPoint x="170" y="464" as="sourcePoint" />
            <mxPoint x="358" y="260" as="targetPoint" />
          </mxGeometry>
        </mxCell>
        <mxCell id="aTW673T8hF_LHLhTMq_z-56" value="" style="endArrow=none;html=1;rounded=0;entryX=0;entryY=0.5;entryDx=0;entryDy=0;" edge="1" parent="1" source="aTW673T8hF_LHLhTMq_z-1" target="aTW673T8hF_LHLhTMq_z-9">
          <mxGeometry width="50" height="50" relative="1" as="geometry">
            <mxPoint x="210" y="534" as="sourcePoint" />
            <mxPoint x="370" y="260" as="targetPoint" />
          </mxGeometry>
        </mxCell>
        <mxCell id="aTW673T8hF_LHLhTMq_z-57" value="" style="endArrow=none;html=1;rounded=0;entryX=0;entryY=0.5;entryDx=0;entryDy=0;" edge="1" parent="1" source="aTW673T8hF_LHLhTMq_z-2" target="aTW673T8hF_LHLhTMq_z-9">
          <mxGeometry width="50" height="50" relative="1" as="geometry">
            <mxPoint x="170" y="300" as="sourcePoint" />
            <mxPoint x="370" y="310" as="targetPoint" />
          </mxGeometry>
        </mxCell>
        <mxCell id="aTW673T8hF_LHLhTMq_z-58" value="" style="endArrow=none;html=1;rounded=0;entryX=0;entryY=0.5;entryDx=0;entryDy=0;" edge="1" parent="1" source="aTW673T8hF_LHLhTMq_z-2" target="aTW673T8hF_LHLhTMq_z-22">
          <mxGeometry width="50" height="50" relative="1" as="geometry">
            <mxPoint x="260" y="231" as="sourcePoint" />
            <mxPoint x="370" y="310" as="targetPoint" />
          </mxGeometry>
        </mxCell>
        <mxCell id="aTW673T8hF_LHLhTMq_z-59" value="" style="endArrow=none;html=1;rounded=0;entryX=0;entryY=0.5;entryDx=0;entryDy=0;" edge="1" parent="1" source="aTW673T8hF_LHLhTMq_z-1" target="aTW673T8hF_LHLhTMq_z-22">
          <mxGeometry width="50" height="50" relative="1" as="geometry">
            <mxPoint x="180" y="390" as="sourcePoint" />
            <mxPoint x="370" y="410" as="targetPoint" />
          </mxGeometry>
        </mxCell>
        <mxCell id="aTW673T8hF_LHLhTMq_z-60" value="" style="endArrow=none;html=1;rounded=0;entryX=0;entryY=0.5;entryDx=0;entryDy=0;" edge="1" parent="1" source="aTW673T8hF_LHLhTMq_z-2" target="aTW673T8hF_LHLhTMq_z-8">
          <mxGeometry width="50" height="50" relative="1" as="geometry">
            <mxPoint x="260" y="218" as="sourcePoint" />
            <mxPoint x="370" y="205" as="targetPoint" />
          </mxGeometry>
        </mxCell>
        <mxCell id="aTW673T8hF_LHLhTMq_z-61" value="" style="endArrow=none;html=1;rounded=0;entryX=0;entryY=0.5;entryDx=0;entryDy=0;" edge="1" parent="1" source="aTW673T8hF_LHLhTMq_z-1" target="aTW673T8hF_LHLhTMq_z-7">
          <mxGeometry width="50" height="50" relative="1" as="geometry">
            <mxPoint x="210" y="539" as="sourcePoint" />
            <mxPoint x="260" y="340" as="targetPoint" />
          </mxGeometry>
        </mxCell>
        <mxCell id="aTW673T8hF_LHLhTMq_z-62" value="" style="endArrow=none;html=1;rounded=0;entryX=0;entryY=0.5;entryDx=0;entryDy=0;" edge="1" parent="1" source="aTW673T8hF_LHLhTMq_z-1" target="aTW673T8hF_LHLhTMq_z-8">
          <mxGeometry width="50" height="50" relative="1" as="geometry">
            <mxPoint x="60" y="615" as="sourcePoint" />
            <mxPoint x="220" y="290" as="targetPoint" />
          </mxGeometry>
        </mxCell>
        <mxCell id="aTW673T8hF_LHLhTMq_z-63" value="" style="endArrow=none;html=1;rounded=0;entryX=0;entryY=0.5;entryDx=0;entryDy=0;" edge="1" parent="1" source="aTW673T8hF_LHLhTMq_z-39" target="aTW673T8hF_LHLhTMq_z-8">
          <mxGeometry width="50" height="50" relative="1" as="geometry">
            <mxPoint x="100" y="149" as="sourcePoint" />
            <mxPoint x="370" y="310" as="targetPoint" />
          </mxGeometry>
        </mxCell>
        <mxCell id="aTW673T8hF_LHLhTMq_z-64" value="" style="endArrow=none;html=1;rounded=0;entryX=0;entryY=0.5;entryDx=0;entryDy=0;" edge="1" parent="1" source="aTW673T8hF_LHLhTMq_z-1" target="aTW673T8hF_LHLhTMq_z-25">
          <mxGeometry width="50" height="50" relative="1" as="geometry">
            <mxPoint x="100" y="528" as="sourcePoint" />
            <mxPoint x="370" y="860" as="targetPoint" />
          </mxGeometry>
        </mxCell>
        <mxCell id="aTW673T8hF_LHLhTMq_z-65" value="" style="endArrow=none;html=1;rounded=0;entryX=0;entryY=0.5;entryDx=0;entryDy=0;" edge="1" parent="1" source="aTW673T8hF_LHLhTMq_z-1" target="aTW673T8hF_LHLhTMq_z-26">
          <mxGeometry width="50" height="50" relative="1" as="geometry">
            <mxPoint x="40" y="670" as="sourcePoint" />
            <mxPoint x="310" y="1049" as="targetPoint" />
          </mxGeometry>
        </mxCell>
        <mxCell id="aTW673T8hF_LHLhTMq_z-66" value="" style="endArrow=none;html=1;rounded=0;entryX=0;entryY=0.5;entryDx=0;entryDy=0;" edge="1" parent="1" source="aTW673T8hF_LHLhTMq_z-2" target="aTW673T8hF_LHLhTMq_z-32">
          <mxGeometry width="50" height="50" relative="1" as="geometry">
            <mxPoint x="70" y="310" as="sourcePoint" />
            <mxPoint x="340" y="490" as="targetPoint" />
          </mxGeometry>
        </mxCell>
        <mxCell id="aTW673T8hF_LHLhTMq_z-67" value="" style="endArrow=none;html=1;rounded=0;entryX=0;entryY=0.5;entryDx=0;entryDy=0;" edge="1" parent="1" source="aTW673T8hF_LHLhTMq_z-1" target="aTW673T8hF_LHLhTMq_z-32">
          <mxGeometry width="50" height="50" relative="1" as="geometry">
            <mxPoint x="90" y="350" as="sourcePoint" />
            <mxPoint x="250" y="470" as="targetPoint" />
          </mxGeometry>
        </mxCell>
        <mxCell id="aTW673T8hF_LHLhTMq_z-68" value="Alonso Hernández Robles 2º DAW" style="text;html=1;align=center;verticalAlign=middle;whiteSpace=wrap;rounded=0;" vertex="1" parent="1">
          <mxGeometry x="70" y="970" width="200" height="30" as="geometry" />
        </mxCell>
        <mxCell id="aTW673T8hF_LHLhTMq_z-77" value="" style="endArrow=none;html=1;rounded=0;" edge="1" parent="1" source="aTW673T8hF_LHLhTMq_z-1">
          <mxGeometry width="50" height="50" relative="1" as="geometry">
            <mxPoint x="100" y="505" as="sourcePoint" />
            <mxPoint x="360" y="450" as="targetPoint" />
          </mxGeometry>
        </mxCell>
        <mxCell id="aTW673T8hF_LHLhTMq_z-78" value="" style="endArrow=none;html=1;rounded=0;" edge="1" parent="1" source="aTW673T8hF_LHLhTMq_z-1" target="aTW673T8hF_LHLhTMq_z-76">
          <mxGeometry width="50" height="50" relative="1" as="geometry">
            <mxPoint x="110" y="515" as="sourcePoint" />
            <mxPoint x="380" y="420" as="targetPoint" />
          </mxGeometry>
        </mxCell>
        <mxCell id="aTW673T8hF_LHLhTMq_z-79" value="" style="endArrow=none;html=1;rounded=0;entryX=0;entryY=0.5;entryDx=0;entryDy=0;" edge="1" parent="1" source="aTW673T8hF_LHLhTMq_z-2" target="aTW673T8hF_LHLhTMq_z-75">
          <mxGeometry width="50" height="50" relative="1" as="geometry">
            <mxPoint x="120" y="525" as="sourcePoint" />
            <mxPoint x="390" y="430" as="targetPoint" />
          </mxGeometry>
        </mxCell>
        <mxCell id="aTW673T8hF_LHLhTMq_z-80" value="" style="endArrow=none;html=1;rounded=0;entryX=0;entryY=0.5;entryDx=0;entryDy=0;" edge="1" parent="1" source="aTW673T8hF_LHLhTMq_z-2" target="aTW673T8hF_LHLhTMq_z-76">
          <mxGeometry width="50" height="50" relative="1" as="geometry">
            <mxPoint x="100" y="320" as="sourcePoint" />
            <mxPoint x="387" y="485" as="targetPoint" />
          </mxGeometry>
        </mxCell>
        <mxCell id="aTW673T8hF_LHLhTMq_z-82" value="Enviar correo&lt;div&gt;de pedido&lt;/div&gt;" style="ellipse;whiteSpace=wrap;html=1;" vertex="1" parent="1">
          <mxGeometry x="600" y="500" width="116" height="40" as="geometry" />
        </mxCell>
        <mxCell id="aTW673T8hF_LHLhTMq_z-83" value="&amp;lt;&amp;lt;include&amp;gt;&amp;gt;" style="html=1;verticalAlign=bottom;endArrow=open;dashed=1;endSize=8;rounded=0;exitX=0.5;exitY=1;exitDx=0;exitDy=0;edgeStyle=orthogonalEdgeStyle;curved=1;entryX=0.5;entryY=0;entryDx=0;entryDy=0;" edge="1" parent="1" target="aTW673T8hF_LHLhTMq_z-82">
          <mxGeometry x="0.1428" y="2" relative="1" as="geometry">
            <mxPoint x="658" y="430" as="sourcePoint" />
            <mxPoint x="740" y="450" as="targetPoint" />
            <Array as="points">
              <mxPoint x="658" y="440" />
              <mxPoint x="658" y="440" />
            </Array>
            <mxPoint as="offset" />
          </mxGeometry>
        </mxCell>
      </root>
    </mxGraphModel>
  </diagram>
</mxfile>
